<svg xmlns="http://www.w3.org/2000/svg" width="31" height="30" viewBox="0 0 31 30" fill="none">
    <path d="M9.75208 3.50391H21.2479C24.409 3.50391 26.9959 6.08963 26.9959 9.25184V20.7477C26.9959 23.9088 24.409 26.4956 21.2479 26.4956H9.75208C6.591 26.4956 4.00415 23.9088 4.00415 20.7477V9.25184C4.00415 6.08963 6.591 3.50391 9.75208 3.50391ZM15.5 19.7895C18.1458 19.7895 20.2901 17.6444 20.2901 14.9998C20.2901 12.354 18.1458 10.2097 15.5 10.2097C12.8554 10.2097 10.71 12.354 10.71 14.9998C10.71 17.6444 12.8554 19.7895 15.5 19.7895ZM9.273 10.2097C10.0674 10.2097 10.71 9.56623 10.71 8.77275C10.71 7.97927 10.0674 7.33577 9.273 7.33577C8.47861 7.33577 7.83601 7.97927 7.83601 8.77275C7.83601 9.56623 8.47861 10.2097 9.273 10.2097Z" fill="white"/>
  </svg>