<svg xmlns="http://www.w3.org/2000/svg" width="31" height="30" viewBox="0 0 31 30" fill="none">
<path d="M21.767 14.0441C21.6538 13.9896 21.5393 13.9377 21.4233 13.8886C21.2215 10.164 19.1866 8.03228 15.7688 8.01045C15.7538 8.01045 15.7375 8.01045 15.7225 8.01045C13.678 8.01045 11.9787 8.88332 10.9326 10.4708L12.812 11.7597C13.5935 10.5745 14.8196 10.3208 15.7238 10.3208C15.7347 10.3208 15.7443 10.3208 15.7552 10.3208C16.8804 10.3276 17.7287 10.655 18.2783 11.2932C18.6779 11.7583 18.9452 12.3993 19.0775 13.2094C18.0805 13.0403 17.0017 12.9871 15.8479 13.054C12.5992 13.2408 10.5112 15.1352 10.6503 17.7688C10.7212 19.104 11.3868 20.2537 12.5242 21.0038C13.4857 21.638 14.7228 21.949 16.0102 21.8781C17.7096 21.7853 19.0421 21.1361 19.9722 19.951C20.6787 19.0508 21.1247 17.8847 21.3224 16.4145C22.1325 16.9028 22.7326 17.5465 23.0641 18.3198C23.6273 19.6332 23.6601 21.7935 21.898 23.5542C20.3541 25.0968 18.4979 25.7637 15.6938 25.7841C12.5829 25.761 10.2302 24.764 8.69999 22.8191C7.26795 20.9984 6.52738 18.3675 6.5001 15.0015C6.52738 11.6356 7.26795 9.0047 8.69999 7.18396C10.2302 5.23911 12.5829 4.24214 15.6938 4.21895C18.8266 4.24214 21.2215 5.24457 22.809 7.19896C23.5878 8.15775 24.1742 9.36203 24.5616 10.7668L26.7642 10.179C26.295 8.44961 25.5572 6.95893 24.552 5.72328C22.5172 3.21789 19.5385 1.9345 15.702 1.90723H15.687C11.8573 1.93314 8.91275 3.22198 6.93517 5.73692C5.17444 7.97499 4.26612 11.0887 4.23611 14.9906V15.0097C4.26612 18.9131 5.17444 22.0267 6.93517 24.2634C8.91275 26.7784 11.8573 28.0659 15.687 28.0931H15.702C19.1062 28.07 21.5052 27.178 23.4828 25.2031C26.0686 22.6186 25.9909 19.3809 25.1385 17.3924C24.5275 15.9672 23.3614 14.8092 21.767 14.0441ZM15.8888 19.5704C14.465 19.6509 12.9852 19.0113 12.9129 17.642C12.8584 16.6273 13.6358 15.4939 15.9761 15.3589C16.2448 15.3439 16.5067 15.3357 16.7658 15.3357C17.6168 15.3357 18.412 15.4189 19.1348 15.5757C18.8648 18.9444 17.2827 19.4913 15.8888 19.5677V19.5704Z" fill="white"/>
</svg>