<svg xmlns="http://www.w3.org/2000/svg" width="31" height="30" viewBox="0 0 31 30" fill="none">
    <path d="M17.6871 4.06006H13.313C9.10283 4.06006 5.65817 7.50471 5.65817 11.7148V14.9955C5.65817 17.948 7.3805 20.6546 10.0323 21.9121V25.5755C10.0323 25.9035 10.4424 26.0676 10.6611 25.8215L13.8324 22.6503H17.6871C21.8973 22.6503 25.3419 19.2056 25.3419 14.9955V11.7148C25.3419 7.50471 21.8973 4.06006 17.6871 4.06006ZM20.5577 18.4128L19.4368 19.5063C18.2612 20.6546 15.2267 19.3423 12.5475 16.6084C9.86831 13.8746 8.69275 10.8127 9.81363 9.66446L10.9072 8.57092C11.3172 8.16084 12.0007 8.18818 12.4655 8.59826L14.0511 10.2386C14.6252 10.8127 14.3792 11.7969 13.641 12.0156C13.1216 12.1796 12.7662 12.7537 12.9302 13.2731C13.2036 14.476 14.7346 16.007 15.8828 16.3077C16.4022 16.4171 16.9763 16.1437 17.1677 15.6243C17.4137 14.8861 18.3979 14.6674 18.9447 15.2415L20.5303 16.8818C20.9678 17.2646 20.9678 17.948 20.5577 18.4128ZM16.4842 9.25438C16.3749 9.25438 16.2655 9.25438 16.1562 9.28172C15.9648 9.30906 15.7734 9.14503 15.7461 8.95366C15.7188 8.76229 15.8828 8.57092 16.0742 8.54358C16.2108 8.51624 16.3475 8.51624 16.4842 8.51624C18.4799 8.51624 20.1203 10.1566 20.1203 12.1523C20.1203 12.289 20.1203 12.4257 20.0929 12.5623C20.0656 12.7537 19.8742 12.9177 19.6828 12.8904C19.4915 12.8631 19.3274 12.6717 19.3548 12.4803C19.3548 12.371 19.3821 12.2616 19.3821 12.1523C19.4095 10.5666 18.0972 9.25438 16.4842 9.25438ZM18.6713 12.1796C18.6713 12.371 18.5073 12.535 18.3159 12.535C18.1245 12.535 17.9605 12.371 17.9605 12.1796C17.9605 11.3868 17.3044 10.7307 16.5116 10.7307C16.3202 10.7307 16.1562 10.5666 16.1562 10.3753C16.1562 10.1839 16.3202 10.0199 16.5116 10.0199C17.6871 9.99252 18.6713 10.9767 18.6713 12.1796ZM21.4598 13.3552C21.4052 13.5465 21.2138 13.6832 20.9951 13.6285C20.8037 13.5739 20.6944 13.3825 20.749 13.1911C20.8311 12.8631 20.8584 12.535 20.8584 12.1796C20.8584 9.77381 18.89 7.80544 16.4842 7.80544C16.3749 7.80544 16.2655 7.80544 16.1562 7.80544C15.9648 7.80544 15.7734 7.66875 15.7734 7.47738C15.7734 7.28601 15.9101 7.09464 16.1015 7.09464C16.2382 7.09464 16.3749 7.0673 16.4842 7.0673C19.3001 7.0673 21.5965 9.36373 21.5965 12.1796C21.5965 12.5623 21.5419 12.9724 21.4598 13.3552Z" fill="white"/>
  </svg>