<svg xmlns="http://www.w3.org/2000/svg" width="103" height="103" viewBox="0 0 103 103" fill="none">
  <path fill-rule="evenodd" clip-rule="evenodd" d="M51.3086 79.0534L56.6747 60.7888L68.5088 72.6282C72.0578 76.1789 72.0578 81.9281 68.5088 85.4788L51.3087 102.687L34.1087 85.4788C30.5597 81.9281 30.5597 76.1789 34.1087 72.6282L51.3086 55.4205V79.0534Z" fill="white"/>
  <path fill-rule="evenodd" clip-rule="evenodd" d="M72.5561 34.1557L55.3561 51.3637V51.3637L72.5561 68.5716C76.1051 72.1223 81.8517 72.1223 85.4007 68.5716L102.601 51.3637L85.4007 34.1557C81.8517 30.605 76.1051 30.605 72.5561 34.1557ZM55.3561 51.3637H78.9841L60.7279 45.9894L55.3561 51.3637Z" fill="white"/>
  <path fill-rule="evenodd" clip-rule="evenodd" d="M51.3082 47.3069L51.3087 47.3074V47.3017L68.5088 30.0938C72.0578 26.5431 72.0578 20.7939 68.5088 17.2432L51.3087 0.0352783L34.1087 17.2489C30.5597 20.7996 30.5597 26.5488 34.1087 30.0995L45.9378 41.9341L51.3082 23.6742V47.3069Z" fill="white"/>
  <path fill-rule="evenodd" clip-rule="evenodd" d="M47.2492 51.3638L47.2517 51.3614L47.2557 51.3574L30.0543 34.1481C26.5088 30.601 20.7509 30.601 17.2054 34.1481L0 51.3614L17.2014 68.5708C20.7469 72.1179 26.5048 72.1179 30.0503 68.5708L42.1828 56.4326L41.8828 56.7325L23.6323 51.3638H47.2492Z" fill="white"/>
  <path d="M34.1032 85.4784L51.3032 102.686V55.4142L34.1032 72.6222C30.5542 76.1728 30.5542 81.9221 34.1032 85.4727V85.4784Z" fill="white"/>
  <path d="M68.5097 30.0995L51.3097 47.3075V0.0353394L68.5097 17.2433C72.0587 20.794 72.0587 26.5432 68.5097 30.0939V30.0995Z" fill="white"/>
  <path d="M72.5637 68.5717L55.3636 51.3637H102.614L85.414 68.5717C81.865 72.1224 76.1184 72.1224 72.5693 68.5717H72.5637Z" fill="white"/>
  <path d="M17.2039 34.1501L0.00390625 51.3638H47.2542L30.0542 34.1558C26.5052 30.6052 20.7586 30.6052 17.2096 34.1558L17.2039 34.1501Z" fill="white"/>
  <path d="M78.8168 18.244L75.1471 23.2652C74.8114 23.7261 75.1396 24.3735 75.7095 24.3735L83.0488 24.3735C83.6187 24.3735 83.9469 23.7261 83.6112 23.2652L79.9415 18.244C79.6626 17.8636 79.0942 17.8621 78.8168 18.244Z" fill="white"/>
  <path d="M23.5007 84.1485L27.1704 79.1273C27.5061 78.6664 27.1779 78.0189 26.608 78.0189L19.2687 78.0189C18.6988 78.0189 18.3706 78.6664 18.7063 79.1273L22.376 84.1485C22.6549 84.5289 23.2233 84.5304 23.5007 84.1485Z" fill="white"/>
  <path fill-rule="evenodd" clip-rule="evenodd" d="M25.0627 20.0135L23.8525 18.3575C23.5735 17.9771 23.0052 17.9756 22.7277 18.3575L21.5175 20.0135L25.0627 20.0135ZM20.6525 21.197L25.9277 21.197L27.5222 23.3787C27.8578 23.8397 27.5296 24.4871 26.9598 24.4871L19.6204 24.4871C19.0506 24.4871 18.7224 23.8397 19.058 23.3787L20.6525 21.197Z" fill="white"/>
  <path fill-rule="evenodd" clip-rule="evenodd" d="M81.3255 82.7801L80.1156 84.4355C79.8381 84.8174 79.2698 84.8159 78.9908 84.4355L77.781 82.7801L81.3255 82.7801ZM82.1904 81.5966L76.916 81.5966L75.3211 79.4143C74.9855 78.9534 75.3137 78.306 75.8835 78.306L83.2229 78.306C83.7927 78.306 84.1209 78.9534 83.7853 79.4143L82.1904 81.5966Z" fill="white"/>
</svg>