<svg width="438" height="167" viewBox="0 0 438 167" fill="none" xmlns="http://www.w3.org/2000/svg">
    <path fill-rule="evenodd" clip-rule="evenodd" d="M83.2978 128.283L92.0096 98.6312L111.222 117.852C116.984 123.617 116.984 132.95 111.222 138.715L83.2981 166.651L55.3745 138.715C49.6127 132.95 49.6127 123.617 55.3745 117.852L83.2978 89.9161V128.283Z" fill="white"/>
    <path fill-rule="evenodd" clip-rule="evenodd" d="M117.793 55.3935L89.8689 83.33L89.8689 83.3301L98.5898 74.6051L128.228 83.3301H89.869L117.793 111.267C123.554 117.031 132.884 117.031 138.645 111.267L166.569 83.33L138.645 55.3935C132.884 49.6291 123.554 49.6291 117.793 55.3935Z" fill="white"/>
    <path fill-rule="evenodd" clip-rule="evenodd" d="M83.2973 76.744L83.2981 76.7449V76.7356L111.222 48.7991C116.984 43.0347 116.984 33.701 111.222 27.9366L83.2981 0L55.3745 27.9458C49.6127 33.7102 49.6127 43.0439 55.3745 48.8083L74.5786 68.0213L83.2973 38.3771V76.744Z" fill="white"/>
    <path fill-rule="evenodd" clip-rule="evenodd" d="M76.7077 83.3303L76.7116 83.3264L76.7181 83.3199L48.7922 55.381C43.0362 49.6224 33.6884 49.6224 27.9325 55.381L0 83.3264L27.9259 111.265C33.6819 117.024 43.0297 117.024 48.7857 111.265L68.5376 91.5041L67.9954 92.0461L38.3662 83.3303H76.7077Z" fill="white"/>
    <path d="M55.3656 138.714L83.2892 166.651V89.906L55.3656 117.843C49.6038 123.607 49.6038 132.941 55.3656 138.705V138.714Z" fill="white"/>
    <path d="M111.223 48.8084L83.2997 76.7449V9.15527e-05L111.223 27.9367C116.985 33.7011 116.985 43.0348 111.223 48.7992V48.8084Z" fill="white"/>
    <path d="M117.805 111.267L89.8812 83.3301H166.591L138.667 111.267C132.905 117.031 123.576 117.031 117.814 111.267H117.805Z" fill="white"/>
    <path d="M27.93 55.3844L0.00634766 83.3302H76.7158L48.7921 55.3936C43.0304 49.6292 33.701 49.6292 27.9392 55.3936L27.93 55.3844Z" fill="white"/>
    <path d="M127.957 29.5612L121.999 37.713C121.454 38.4613 121.987 39.5124 122.912 39.5124L134.827 39.5124C135.752 39.5124 136.285 38.4613 135.74 37.713L129.783 29.5612C129.33 28.9437 128.407 28.9412 127.957 29.5612Z" fill="white"/>
    <path d="M38.1527 136.555L44.1103 128.403C44.6552 127.655 44.1224 126.604 43.1973 126.604L31.2821 126.604C30.3569 126.604 29.8242 127.655 30.3691 128.403L36.3267 136.555C36.7795 137.173 37.7023 137.175 38.1527 136.555Z" fill="white"/>
    <path fill-rule="evenodd" clip-rule="evenodd" d="M40.6885 32.434L38.7238 29.7456C38.2709 29.128 37.3482 29.1256 36.8977 29.7456L34.9329 32.434H40.6885ZM33.5287 34.3554H42.0928L44.6814 37.8974C45.2263 38.6457 44.6935 39.6968 43.7683 39.6968L31.8531 39.6968C30.928 39.6968 30.3952 38.6457 30.9401 37.8974L33.5287 34.3554Z" fill="white"/>
    <path fill-rule="evenodd" clip-rule="evenodd" d="M132.029 134.334L130.065 137.021C129.615 137.641 128.692 137.639 128.239 137.021L126.275 134.334L132.029 134.334ZM133.434 132.412L124.871 132.412L122.282 128.869C121.737 128.121 122.269 127.07 123.195 127.07L135.11 127.07C136.035 127.07 136.568 128.121 136.023 128.869L133.434 132.412Z" fill="white"/>
    <path d="M220.313 37.5842L222.04 35.4048C226.246 39.421 230.397 41.0658 234.863 41.0658C239.864 41.0658 242.426 39.0235 242.426 35.8709C242.426 27.0573 218.162 33.8971 218.162 15.2694C218.162 6.38731 225.259 0.0684204 236.453 0.0684204C239.864 0.0684204 242.81 0.644109 245.344 1.60359C249.619 3.22101 251.071 8.5393 248.29 12.1716L246.92 13.9672C244.029 11.3355 240.933 9.69067 236.466 9.69067C231.342 9.69067 228.712 11.8564 228.712 14.9541C228.712 23.3153 253.044 17.9148 253.044 34.9525C253.044 44.6296 245.81 50.6744 234.754 50.6744C229.835 50.6744 225.903 49.5915 222.697 47.9878C218.793 46.0414 217.642 41.011 220.341 37.5842H220.313Z" fill="white"/>
    <path d="M258.92 25.4674C258.92 8.22414 272.004 0 283.979 0C295.953 0 309.366 8.22414 309.366 25.4674C309.366 42.7107 296.008 50.7293 283.979 50.7293C271.95 50.7293 258.92 42.3132 258.92 25.4674ZM298.515 25.4674C298.515 14.8035 291.021 10.1294 283.979 10.1294C276.937 10.1294 269.771 14.8035 269.771 25.4674C269.771 36.1314 276.868 40.5313 283.979 40.5313C291.089 40.5313 298.515 35.7339 298.515 25.4674Z" fill="white"/>
    <path d="M366.652 49.6876H362.103C358.733 49.6876 355.869 47.234 355.335 43.917L352.567 26.5914L344.142 42.5463C342.484 45.6714 338.004 45.6714 336.36 42.5326L327.961 26.4543L325.139 43.917C324.604 47.234 321.741 49.6739 318.371 49.6739H313.808L322.755 0.191895H324.207L340.251 32.6362L356.362 0.191895H357.815L366.624 49.6739L366.652 49.6876Z" fill="white"/>
    <path d="M384.928 40.2023H398.724C402.506 40.2023 405.575 43.2727 405.575 47.0558V49.6738H374.598V1.05539H404.849V3.60488C404.849 7.38798 401.78 10.4583 397.998 10.4583H384.914V19.9298H403.862V29.1409H384.914V40.1886L384.928 40.2023Z" fill="white"/>
    <path d="M249.106 104.301L247.434 100.202H230.665L228.938 104.342C227.87 106.891 225.376 108.55 222.622 108.55H215.936L238.501 59.0678H239.885L262.381 108.55H255.463C252.681 108.55 250.174 106.864 249.119 104.287L249.106 104.301ZM244.475 91.7177L238.953 78.3535L233.501 91.7177H244.489H244.475Z" fill="white"/>
    <path d="M306.222 108.55H297.372C295.056 108.55 292.905 107.385 291.645 105.452L279.013 86.1117V108.55H268.491V66.785C268.491 63.0019 271.56 59.9315 275.341 59.9315H286.384C297.892 59.9315 305.126 64.729 305.126 75.064C305.126 82.4931 300.523 87.5647 292.44 89.2095L306.25 108.55H306.222ZM278.999 82.3561H284C291.097 82.3561 294.262 80.3137 294.262 75.7082C294.262 71.3631 291.563 69.1974 285.315 69.1974H278.999V82.3561Z" fill="white"/>
    <path d="M323.048 101.697V69.3345H316.417C312.635 69.3345 309.566 66.2641 309.566 62.481V59.9315H340.201C343.982 59.9315 347.051 63.0019 347.051 66.785V69.3345H333.57V108.55H329.898C326.117 108.55 323.048 105.48 323.048 101.697Z" fill="white"/>
    <path d="M215.918 159.003V117.238H219.521C223.303 117.238 226.372 120.309 226.372 124.092V165.857H222.768C218.987 165.857 215.918 162.786 215.918 159.003Z" fill="white"/>
    <path d="M265.97 117.238H269.71C273.491 117.238 276.56 120.308 276.56 124.091V166.651H275.108L248.269 139.278V165.856H244.665C240.884 165.856 237.815 162.786 237.815 159.003V116.374H239.267L265.97 143.678V117.224V117.238Z" fill="white"/>
    <path d="M350.813 93.8229L341.959 105.938C341.149 107.05 341.941 108.612 343.316 108.612L361.024 108.612C362.398 108.612 363.19 107.05 362.38 105.938L353.526 93.8229C352.853 92.9051 351.482 92.9015 350.813 93.8229Z" fill="white"/>
    <path d="M423.675 34.7495L414.821 46.8643C414.011 47.9764 414.803 49.5385 416.177 49.5385L433.885 49.5385C435.26 49.5385 436.052 47.9764 435.242 46.8643L426.388 34.7495C425.715 33.8317 424.344 33.8281 423.675 34.7495Z" fill="white"/>
</svg>
    