<svg xmlns="http://www.w3.org/2000/svg" width="223" height="167" viewBox="0 0 223 167" fill="none">
    <path d="M5.31345 37.5842L7.03971 35.4048C11.2458 39.421 15.3971 41.0658 19.8635 41.0658C24.8642 41.0658 27.4262 39.0235 27.4262 35.8709C27.4262 27.0573 3.16245 33.8971 3.16245 15.2694C3.16245 6.38731 10.2594 0.0684204 21.4527 0.0684204C24.8642 0.0684204 27.8098 0.644109 30.3444 1.60359C34.619 3.22101 36.0713 8.5393 33.2901 12.1716L31.92 13.9672C29.0292 11.3355 25.9328 9.69067 21.4664 9.69067C16.3424 9.69067 13.7119 11.8564 13.7119 14.9541C13.7119 23.3153 38.0442 17.9148 38.0442 34.9525C38.0442 44.6296 30.8102 50.6744 19.7539 50.6744C14.8354 50.6744 10.9033 49.5915 7.69734 47.9878C3.79267 46.0414 2.64182 41.011 5.34083 37.5842H5.31345Z" fill="white"/>
    <path d="M43.9203 25.4674C43.9203 8.22414 57.0044 0 68.9787 0C80.9531 0 94.3659 8.22414 94.3659 25.4674C94.3659 42.7107 81.0079 50.7293 68.9787 50.7293C56.9496 50.7293 43.9203 42.3132 43.9203 25.4674ZM83.515 25.4674C83.515 14.8035 76.0208 10.1294 68.9787 10.1294C61.9366 10.1294 54.7712 14.8035 54.7712 25.4674C54.7712 36.1314 61.8681 40.5313 68.9787 40.5313C76.0893 40.5313 83.515 35.7339 83.515 25.4674Z" fill="white"/>
    <path d="M151.652 49.6876H147.103C143.733 49.6876 140.869 47.234 140.335 43.917L137.567 26.5914L129.142 42.5463C127.484 45.6714 123.004 45.6714 121.36 42.5326L112.961 26.4543L110.139 43.917C109.604 47.234 106.741 49.6739 103.371 49.6739H98.8084L107.755 0.191895H109.207L125.251 32.6362L141.362 0.191895H142.815L151.624 49.6739L151.652 49.6876Z" fill="white"/>
    <path d="M169.928 40.2023H183.724C187.506 40.2023 190.575 43.2727 190.575 47.0558V49.6738H159.598V1.05539H189.849V3.60488C189.849 7.38798 186.78 10.4583 182.998 10.4583H169.914V19.9298H188.862V29.1409H169.914V40.1886L169.928 40.2023Z" fill="white"/>
    <path d="M34.1056 104.301L32.4341 100.202H15.6646L13.9383 104.342C12.8697 106.891 10.3762 108.55 7.62236 108.55H0.936462L23.5013 59.0678H24.8851L47.3815 108.55H40.4627C37.6815 108.55 35.1742 106.864 34.1193 104.287L34.1056 104.301ZM29.4748 91.7177L23.9535 78.3535L18.5006 91.7177H29.4885H29.4748Z" fill="white"/>
    <path d="M91.2223 108.55H82.3718C80.0564 108.55 77.9054 107.385 76.6449 105.452L64.013 86.1117V108.55H53.4909V66.785C53.4909 63.0019 56.5598 59.9315 60.3412 59.9315H71.3839C82.8924 59.9315 90.1263 64.729 90.1263 75.064C90.1263 82.4931 85.5229 87.5647 77.4396 89.2095L91.2498 108.55H91.2223ZM63.9993 82.3561H69C76.0969 82.3561 79.2617 80.3137 79.2617 75.7082C79.2617 71.3631 76.5627 69.1974 70.3152 69.1974H63.9993V82.3561Z" fill="white"/>
    <path d="M108.048 101.697V69.3345H101.417C97.6353 69.3345 94.5663 66.2641 94.5663 62.481V59.9315H125.201C128.982 59.9315 132.051 63.0019 132.051 66.785V69.3345H118.57V108.55H114.898C111.117 108.55 108.048 105.48 108.048 101.697Z" fill="white"/>
    <path d="M0.918182 159.003V117.238H4.52144C8.30281 117.238 11.3717 120.309 11.3717 124.092V165.857H7.76848C3.98711 165.857 0.918182 162.786 0.918182 159.003Z" fill="white"/>
    <path d="M50.9698 117.238H54.7101C58.4915 117.238 61.5604 120.308 61.5604 124.091V166.651H60.1081L33.2687 139.278V165.856H29.6654C25.8841 165.856 22.8151 162.786 22.8151 159.003V116.374H24.2674L50.9698 143.678V117.224V117.238Z" fill="white"/>
    <path d="M135.813 93.8229L126.959 105.938C126.149 107.05 126.941 108.612 128.316 108.612L146.024 108.612C147.398 108.612 148.19 107.05 147.38 105.938L138.526 93.8229C137.853 92.9051 136.482 92.9015 135.813 93.8229Z" fill="white"/>
    <path d="M208.675 34.7495L199.821 46.8643C199.011 47.9764 199.803 49.5385 201.177 49.5385L218.885 49.5385C220.26 49.5385 221.052 47.9764 220.242 46.8643L211.388 34.7495C210.715 33.8317 209.344 33.8281 208.675 34.7495Z" fill="white"/>
  </svg>