<svg xmlns="http://www.w3.org/2000/svg" width="167" height="167" viewBox="0 0 167 167" fill="none">
    <path fill-rule="evenodd" clip-rule="evenodd" d="M83.2978 128.283L92.0096 98.6312L111.222 117.852C116.984 123.617 116.984 132.95 111.222 138.715L83.2981 166.651L55.3745 138.715C49.6127 132.95 49.6127 123.617 55.3745 117.852L83.2978 89.9161V128.283Z" fill="white"/>
    <path fill-rule="evenodd" clip-rule="evenodd" d="M117.793 55.3935L89.8689 83.33L89.8689 83.3301L98.5898 74.6051L128.228 83.3301H89.869L117.793 111.267C123.554 117.031 132.884 117.031 138.645 111.267L166.569 83.33L138.645 55.3935C132.884 49.6291 123.554 49.6291 117.793 55.3935Z" fill="white"/>
    <path fill-rule="evenodd" clip-rule="evenodd" d="M83.2973 76.744L83.2981 76.7449V76.7356L111.222 48.7991C116.984 43.0347 116.984 33.701 111.222 27.9366L83.2981 0L55.3745 27.9458C49.6127 33.7102 49.6127 43.0439 55.3745 48.8083L74.5786 68.0213L83.2973 38.3771V76.744Z" fill="white"/>
    <path fill-rule="evenodd" clip-rule="evenodd" d="M76.7077 83.3303L76.7116 83.3264L76.7181 83.3199L48.7922 55.381C43.0362 49.6224 33.6884 49.6224 27.9325 55.381L0 83.3264L27.9259 111.265C33.6819 117.024 43.0297 117.024 48.7857 111.265L68.5376 91.5041L67.9954 92.0461L38.3662 83.3303H76.7077Z" fill="white"/>
    <path d="M55.3656 138.714L83.2892 166.651V89.906L55.3656 117.843C49.6038 123.607 49.6038 132.941 55.3656 138.705V138.714Z" fill="white"/>
    <path d="M111.223 48.8084L83.2997 76.7449V9.15527e-05L111.223 27.9367C116.985 33.7011 116.985 43.0348 111.223 48.7992V48.8084Z" fill="white"/>
    <path d="M117.805 111.267L89.8812 83.3301H166.591L138.667 111.267C132.905 117.031 123.576 117.031 117.814 111.267H117.805Z" fill="white"/>
    <path d="M27.93 55.3844L0.00634766 83.3302H76.7158L48.7921 55.3936C43.0304 49.6292 33.701 49.6292 27.9392 55.3936L27.93 55.3844Z" fill="white"/>
    <path d="M127.957 29.5612L121.999 37.713C121.454 38.4613 121.987 39.5124 122.912 39.5124L134.827 39.5124C135.752 39.5124 136.285 38.4613 135.74 37.713L129.783 29.5612C129.33 28.9437 128.407 28.9412 127.957 29.5612Z" fill="white"/>
    <path d="M38.1527 136.555L44.1103 128.403C44.6552 127.655 44.1224 126.604 43.1973 126.604L31.2821 126.604C30.3569 126.604 29.8242 127.655 30.3691 128.403L36.3267 136.555C36.7795 137.173 37.7023 137.175 38.1527 136.555Z" fill="white"/>
    <path fill-rule="evenodd" clip-rule="evenodd" d="M40.6885 32.434L38.7238 29.7456C38.2709 29.128 37.3482 29.1256 36.8977 29.7456L34.9329 32.434H40.6885ZM33.5287 34.3554H42.0928L44.6814 37.8974C45.2263 38.6457 44.6935 39.6968 43.7683 39.6968L31.8531 39.6968C30.928 39.6968 30.3952 38.6457 30.9401 37.8974L33.5287 34.3554Z" fill="white"/>
    <path fill-rule="evenodd" clip-rule="evenodd" d="M132.029 134.334L130.065 137.021C129.615 137.641 128.692 137.639 128.239 137.021L126.275 134.334L132.029 134.334ZM133.434 132.412L124.871 132.412L122.282 128.869C121.737 128.121 122.269 127.07 123.195 127.07L135.11 127.07C136.035 127.07 136.568 128.121 136.023 128.869L133.434 132.412Z" fill="white"/>
  </svg>