<svg width="204" height="78" viewBox="0 0 204 78" fill="none" xmlns="http://www.w3.org/2000/svg">
<path fill-rule="evenodd" clip-rule="evenodd" d="M39.4577 59.367L43.4893 45.6446L42.808 44.9622L52.381 54.5397C55.0475 57.2074 55.0475 61.5268 52.381 64.1945L39.4585 77.123L26.5359 64.1945C23.8695 61.5268 23.8695 57.2074 26.5359 54.5397L39.4577 41.612V59.367Z" fill="white"/>
<path fill-rule="evenodd" clip-rule="evenodd" d="M42.499 38.5636L55.4215 51.492C58.0879 54.1597 62.4054 54.1597 65.0718 51.492L77.9944 38.5635L65.0718 25.635C62.4054 22.9674 58.0879 22.9674 55.4215 25.635L46.5348 34.5258L60.2509 38.5636H42.499Z" fill="white"/>
<path fill-rule="evenodd" clip-rule="evenodd" d="M39.4583 35.5159L39.4585 35.516V35.5118L52.381 22.5833C55.0475 19.9156 55.0475 15.5962 52.381 12.9285L39.4585 0L26.5359 12.9328C23.8695 15.6004 23.8695 19.9199 26.5359 22.5875L35.4235 31.4791L39.4583 17.7602V35.5159Z" fill="white"/>
<path fill-rule="evenodd" clip-rule="evenodd" d="M36.4085 38.5637L36.4103 38.5619L36.4133 38.5589L23.4897 25.6293C20.826 22.9643 16.5 22.9643 13.8363 25.6293L0.909668 38.5619L13.8333 51.4914C16.497 54.1564 20.823 54.1564 23.4867 51.4914L32.9188 42.055L32.3763 42.5972L18.6645 38.5637H36.4085Z" fill="white"/>
<path d="M26.532 64.1943L39.4546 77.1228V41.6068L26.532 54.5353C23.8656 57.2029 23.8656 61.5224 26.532 64.19V64.1943Z" fill="white"/>
<path d="M52.3815 22.5876L39.459 35.5161V6.10352e-05L52.3815 12.9286C55.0479 15.5962 55.0479 19.9157 52.3815 22.5833V22.5876Z" fill="white"/>
<path d="M55.4269 51.4921L42.5044 38.5636H78.0041L65.0815 51.4921C62.4151 54.1598 58.0976 54.1598 55.4312 51.4921H55.4269Z" fill="white"/>
<path d="M13.8351 25.6308L0.912598 38.5636H36.4123L23.4897 25.6351C20.8233 22.9675 16.5058 22.9675 13.8394 25.6351L13.8351 25.6308Z" fill="white"/>
<path d="M60.1251 13.6803L57.368 17.4528C57.1158 17.7991 57.3624 18.2855 57.7905 18.2855L63.3047 18.2855C63.7328 18.2855 63.9794 17.7991 63.7272 17.4528L60.9701 13.6803C60.7605 13.3946 60.3335 13.3934 60.1251 13.6803Z" fill="white"/>
<path d="M18.5656 63.1951L21.3227 59.4227C21.5748 59.0763 21.3283 58.5899 20.9001 58.5899L15.386 58.5899C14.9579 58.5899 14.7113 59.0763 14.9635 59.4227L17.7205 63.1951C17.9301 63.4809 18.3571 63.482 18.5656 63.1951Z" fill="white"/>
<path fill-rule="evenodd" clip-rule="evenodd" d="M19.7394 15.0099L18.8301 13.7657C18.6205 13.4799 18.1935 13.4788 17.9851 13.7657L17.0757 15.0099L19.7394 15.0099ZM16.4259 15.8991L20.3893 15.8991L21.5872 17.5382C21.8393 17.8845 21.5928 18.3709 21.1646 18.3709L15.6505 18.3709C15.2224 18.3709 14.9758 17.8845 15.228 17.5382L16.4259 15.8991Z" fill="white"/>
<path fill-rule="evenodd" clip-rule="evenodd" d="M62.0109 62.167L61.1019 63.4108C60.8934 63.6977 60.4664 63.6966 60.2568 63.4108L59.3478 62.167L62.0109 62.167ZM62.6607 61.2778L58.6979 61.2778L57.4997 59.6383C57.2476 59.292 57.4941 58.8056 57.9223 58.8056L63.4364 58.8056C63.8645 58.8056 64.1111 59.292 63.8589 59.6383L62.6607 61.2778Z" fill="white"/>
<path d="M102.397 17.3933L103.196 16.3847C105.143 18.2433 107.064 19.0045 109.131 19.0045C111.445 19.0045 112.631 18.0594 112.631 16.6004C112.631 12.5217 101.402 15.687 101.402 7.06642C101.402 2.95597 104.686 0.0317078 109.866 0.0317078C111.445 0.0317078 112.808 0.298126 113.981 0.742156C115.959 1.49067 116.631 3.95187 115.344 5.63284L114.71 6.46381C113.372 5.2459 111.94 4.4847 109.873 4.4847C107.501 4.4847 106.284 5.48694 106.284 6.92053C106.284 10.7899 117.544 8.29068 117.544 16.1754C117.544 20.6538 114.197 23.4512 109.08 23.4512C106.804 23.4512 104.984 22.95 103.501 22.2079C101.694 21.3071 101.161 18.9791 102.41 17.3933H102.397Z" fill="white"/>
<path d="M120.264 11.7858C120.264 3.80598 126.319 0 131.86 0C137.402 0 143.609 3.80598 143.609 11.7858C143.609 19.7657 137.427 23.4765 131.86 23.4765C126.293 23.4765 120.264 19.5818 120.264 11.7858ZM138.587 11.7858C138.587 6.85076 135.119 4.6877 131.86 4.6877C128.601 4.6877 125.285 6.85076 125.285 11.7858C125.285 16.7209 128.57 18.7571 131.86 18.7571C135.151 18.7571 138.587 16.537 138.587 11.7858Z" fill="white"/>
<path d="M170.12 22.9945H168.015C166.455 22.9945 165.13 21.859 164.883 20.3239L163.602 12.306L159.703 19.6896C158.935 21.1359 156.862 21.1359 156.101 19.6833L152.215 12.2426L150.909 20.3239C150.661 21.859 149.336 22.9881 147.776 22.9881H145.665L149.805 0.0888062H150.477L157.902 15.1034L165.358 0.0888062H166.03L170.107 22.9881L170.12 22.9945Z" fill="white"/>
<path d="M178.578 18.6049H184.963C186.713 18.6049 188.133 20.0258 188.133 21.7765V22.9881H173.797V0.488403H187.797V1.66826C187.797 3.41901 186.377 4.8399 184.627 4.8399H178.572V9.22312H187.34V13.4858H178.572V18.5985L178.578 18.6049Z" fill="white"/>
<path d="M115.722 48.2683L114.949 46.3717H107.188L106.389 48.2874C105.895 49.4672 104.741 50.2347 103.466 50.2347H100.372L110.815 27.3354H111.455L121.866 50.2347H118.664C117.377 50.2347 116.217 49.4545 115.728 48.262L115.722 48.2683ZM113.579 42.4452L111.024 36.2605L108.5 42.4452H113.585H113.579Z" fill="white"/>
<path d="M142.155 50.2348H138.059C136.987 50.2348 135.992 49.6956 135.409 48.8012L129.563 39.8508V50.2348H124.693V30.9068C124.693 29.156 126.114 27.7351 127.864 27.7351H132.974C138.3 27.7351 141.648 29.9553 141.648 34.7381C141.648 38.1762 139.517 40.5232 135.776 41.2844L142.167 50.2348H142.155ZM129.556 38.1128H131.871C135.155 38.1128 136.62 37.1676 136.62 35.0363C136.62 33.0254 135.371 32.0232 132.479 32.0232H129.556V38.1128Z" fill="white"/>
<path d="M149.94 47.0632V32.0866H146.871C145.121 32.0866 143.701 30.6657 143.701 28.915V27.7351H157.878C159.628 27.7351 161.048 29.156 161.048 30.9068V32.0866H154.81V50.2348H153.11C151.36 50.2348 149.94 48.8139 149.94 47.0632Z" fill="white"/>
<path d="M100.363 73.5836V54.2556H102.03C103.78 54.2556 105.2 55.6765 105.2 57.4272V76.7553H103.533C101.783 76.7553 100.363 75.3344 100.363 73.5836Z" fill="white"/>
<path d="M123.526 54.2554H125.257C127.007 54.2554 128.427 55.6763 128.427 57.4271V77.123H127.755L115.334 64.4554V76.7551H113.667C111.917 76.7551 110.497 75.3342 110.497 73.5834V53.8558H111.169L123.526 66.4916V54.2491V54.2554Z" fill="white"/>
<path d="M162.789 43.4195L158.692 49.026C158.317 49.5406 158.684 50.2635 159.32 50.2635L167.515 50.2635C168.151 50.2635 168.517 49.5406 168.143 49.026L164.045 43.4195C163.734 42.9947 163.099 42.9931 162.789 43.4195Z" fill="white"/>
<path d="M196.51 16.0814L192.412 21.6879C192.037 22.2026 192.404 22.9255 193.04 22.9255L201.235 22.9255C201.871 22.9255 202.238 22.2026 201.863 21.6879L197.765 16.0814C197.454 15.6567 196.819 15.655 196.51 16.0814Z" fill="white"/>
</svg>
